<?xml version="1.0" standalone="no"?>
<!DOCTYPE svg PUBLIC "-//W3C//DTD SVG 20010904//EN"
 "http://www.w3.org/TR/2001/REC-SVG-20010904/DTD/svg10.dtd">
<svg version="1.0" xmlns="http://www.w3.org/2000/svg"
 width="450.000000pt" height="450.000000pt" viewBox="0 0 450.000000 450.000000"
 preserveAspectRatio="xMidYMid meet">
<metadata>
Created by potrace 1.14, written by Peter Selinger 2001-2017
</metadata>
<g transform="translate(0.000000,450.000000) scale(0.100000,-0.100000)"
fill="#000000" stroke="none">
<path d="M1985 3783 c-511 -30 -922 -266 -1206 -693 -108 -162 -193 -378 -224
-570 -20 -126 -20 -397 1 -515 30 -177 89 -336 191 -514 73 -127 121 -190 215
-284 221 -219 434 -343 708 -412 171 -43 246 -49 605 -50 l340 0 3 291 2 291
-312 6 c-329 7 -433 18 -548 57 -81 28 -110 43 -184 93 -188 127 -344 345
-402 562 -26 97 -27 343 -1 430 101 342 307 567 612 672 101 34 244 43 752 43
l443 0 2 -1222 3 -1223 305 0 305 0 0 1520 0 1520 -780 1 c-429 0 -802 -1
-830 -3z"/>
</g>
</svg>
